<?xml version="1.0" encoding="UTF-8" standalone="no"?>
<svg
   xmlns:dc="http://purl.org/dc/elements/1.1/"
   xmlns:cc="http://creativecommons.org/ns#"
   xmlns:rdf="http://www.w3.org/1999/02/22-rdf-syntax-ns#"
   xmlns:svg="http://www.w3.org/2000/svg"
   xmlns="http://www.w3.org/2000/svg"
   xmlns:sodipodi="http://sodipodi.sourceforge.net/DTD/sodipodi-0.dtd"
   xmlns:inkscape="http://www.inkscape.org/namespaces/inkscape"
   width="1106"
   height="630"
   viewBox="0 0 29262.928 16668.766"
   version="1.1"
   id="svg4529"
   sodipodi:docname="logo.svg"
   style="fill-rule:evenodd;image-rendering:optimizeQuality;shape-rendering:geometricPrecision;text-rendering:geometricPrecision"
   inkscape:version="0.92.1 r15371">
  <metadata
     id="metadata4533">
    <rdf:RDF>
      <cc:Work
         rdf:about="">
        <dc:format>image/svg+xml</dc:format>
        <dc:type
           rdf:resource="http://purl.org/dc/dcmitype/StillImage" />
        <dc:title></dc:title>
      </cc:Work>
    </rdf:RDF>
  </metadata>
  <sodipodi:namedview
     pagecolor="#ffffff"
     bordercolor="#666666"
     borderopacity="1"
     objecttolerance="10"
     gridtolerance="10"
     guidetolerance="10"
     inkscape:pageopacity="0"
     inkscape:pageshadow="2"
     inkscape:window-width="1366"
     inkscape:window-height="705"
     id="namedview4531"
     showgrid="true"
     inkscape:zoom="0.64004031"
     inkscape:cx="688.30813"
     inkscape:cy="251.71595"
     inkscape:window-x="-8"
     inkscape:window-y="-8"
     inkscape:window-maximized="1"
     inkscape:current-layer="svg4529">
    <inkscape:grid
       type="xygrid"
       id="grid4535" />
  </sodipodi:namedview>
  <defs
     id="defs4497">
    <style
       id="style4485">@font-face{font-family:&quot;Arial&quot;;font-variant:normal;font-style:normal;font-weight:normal;src:url(&quot;#FontID0&quot;) format(svg)}</style>
  </defs>
  <path
     d="m 17166.753,4828.4351 249.51,-469.9764 -3433.731,-1825.7787 -590.111,-295.7154 c -6.6,-2.6403 -13.2,-6.6008 -21.121,-9.2411 -67.33,118.8143 -130.697,248.1897 -175.583,340.6007 -101.651,205.9447 -198.022,418.4903 -310.237,617.8341 l -2129.415,4042.3243 -250.829,3.9605 c -327.4,3.9605 -777.5738,34.3241 -945.2338,-318.1582 -95.0513,-201.9841 -34.3239,-394.7273 64.688,-576.909 67.328,-124.0949 141.257,-242.9092 207.265,-368.3242 L 11880.84,2074.5851 c 200.664,-363.0435 351.162,-745.8894 612.553,-1071.9683 274.593,-341.92088 616.514,-550.50601 1040.285,-662.71941 558.427,-146.5376 933.352,-6.6008 1425.771,227.06723 l 7.921,3.9605 3868.064,2038.32408 5.28,3.9605 c 440.933,252.1501 708.925,421.1305 953.154,888.4664 237.628,455.4547 274.593,1044.2451 81.851,1520.8222 -130.696,324.7589 -283.835,644.2373 -443.574,954.4744 -180.863,353.8023 -374.926,706.2846 -582.19,1046.8854 l -128.056,211.2252 -814.537,-30.3636 c -19.802,85.8103 -52.807,168.9802 -93.732,246.8697 l -91.089,170.3004 c -17.163,33.0039 -35.645,63.3675 -55.449,93.7312 l 3.961,2.6402 -205.945,389.4468 198.024,356.4426 -142.576,269.3122 5828.499,77.8894 c 35.644,-36.9644 77.889,-69.9684 122.773,-99.0118 168.98,-106.9329 319.479,-124.0949 483.178,-125.415 231.029,-291.755 612.555,-447.5337 987.479,-446.2135 h 592.751 c 184.823,0 351.162,5.2806 510.9,116.1739 47.527,33.004 87.132,71.2885 121.455,113.5336 l 254.791,-6.6008 h 264.032 c 155.779,0 269.311,-3.9605 407.929,95.0514 91.09,63.3675 154.458,153.1383 187.462,256.1108 1.319,3.9604 2.64,9.241 5.28,13.2014 l 25.084,66.0079 5.281,256.1108 2009.28,500.3396 -2002.68,236.3094 c -3.96,40.925 -10.561,81.849 -22.442,120.134 -17.163,118.8141 -87.13,221.7861 -192.743,300.9951 -135.976,101.652 -270.633,106.933 -427.731,104.293 h -510.902 c -141.257,174.26 -374.926,224.426 -634.996,224.426 h -601.993 c -440.932,-7.921 -718.166,-147.857 -957.114,-444.894 h -3.961 c -234.988,-2.639 -450.173,-62.047 -604.633,-208.5831 l -1118.173,2.641 c -1519.502,1.32 -3040.324,-11.881 -4559.825,-1.32 l -1174.943,11.881 -196.702,370.9631 496.379,-7.92 -11.882,440.932 c -5.28,211.225 -216.505,620.475 -311.557,813.217 -191.422,393.408 -394.726,781.533 -598.032,1168.34 l -912.229,1708.285 c -308.917,584.83 -650.838,1399.369 -1240.949,1743.929 -402.648,234.989 -823.778,340.602 -1288.474,249.511 -382.846,-75.25 -718.166,-267.993 -1062.727,-440.934 l -5.281,-2.64 -3452.2127,-1833.7 C 7109.7888,13640.49 6568.524,12990.973 6755.9865,11988.972 c 62.0473,-335.32 285.1541,-736.648 446.2133,-1041.606 108.253,-204.623 176.9013,-405.286 368.3242,-555.786 271.9526,-209.905 607.2728,-171.619 917.51,-88.449 l 327.3991,87.129 -14.5218,337.961 c -11.8813,279.873 -245.5492,683.842 -380.2054,930.712 l -155.7788,281.193 451.4942,250.83 1366.3627,726.087 2182.223,1140.617 c 1.319,-2.641 2.639,-5.28 3.96,-6.601 l 306.276,-576.91 c 48.846,-91.089 110.893,-175.58 190.103,-241.588 5.281,-87.13 30.365,-172.941 72.609,-253.47 l 760.41,-1431.052 c 21.124,-39.605 43.565,-76.569 68.65,-113.534 l -922.791,-429.051 -130.697,-1134.0141 -1078.569,-6.601 -220.466,475.2551 -1040.285,-483.1761 -130.695,-1.32 -39.605,-7.921 c -178.2218,-34.324 -322.1178,-118.8144 -462.0548,-229.7084 l -118.8143,-97.691 c -5.2806,3.96 -9.2411,7.92 -13.2016,10.561 -249.5099,208.585 -388.1265,335.3204 -741.9289,349.8424 -512.2213,21.122 -1036.3241,15.842 -1549.8656,17.162 -821.1383,2.64 -1642.2768,-1.32 -2463.4152,-5.281 l -710.2449,-5.28 c -30.3638,30.363 -64.6879,59.407 -102.9725,84.49 -159.7391,105.6111 -326.079,126.7341 -499.0197,130.6941 -138.6167,172.941 -334.0001,307.597 -535.9843,378.885 -293.075,101.653 -607.2727,68.65 -912.2292,69.969 -216.506,1.32 -421.1306,25.083 -616.514,-101.652 -5.2806,-3.96 -10.5613,-6.601 -14.5218,-10.562 l -720.80617,1.32 c -254.79051,-5.28 -468.65613,-122.774 -530.70358,-373.604 -17.162056,-43.565 -26.403156,-91.0901 -33.003956,-142.5751 l -2.64031,-23.764 -1.32016,-1011.2413 c 0,-79.2095 7.92095,-147.8578 33.003946,-219.1464 21.12254,-104.2925 72.60872,-199.3438 151.81821,-270.6324 146.53755,-132.0158 290.4348,-133.3358 469.97625,-132.0158 h 634.99617 c 200.664,-135.9762 402.6482,-113.5335 631.0354,-110.8933 443.5732,2.6405 818.4981,-55.4466 1206.6247,224.427 104.2924,75.2491 171.6205,142.5772 231.0277,220.4664 101.652,0 203.3042,5.2806 304.9565,36.9644 116.1739,35.6442 221.7866,101.6523 306.2768,187.4625 h 331.3595 l 3964.435,-96.3715 c 72.6087,-2.6404 242.9092,0 319.4783,-17.1621 18.4822,-13.2016 39.6047,-31.6839 55.4466,-44.8854 60.7273,-50.166 121.4546,-100.3319 184.8222,-147.8576 463.3756,-349.842 773.6129,-287.7946 1230.3867,13.2015 64.689,33.0038 201.984,60.7272 337.96,81.8499 l 1907.629,-4101.7315 1203.985,559.747 344.561,2999.3993 1085.171,-2334.0396 1075.928,500.34 204.625,-382.8459 258.75,137.2965 c 5.28,-11.8814 11.881,-23.7629 18.483,-35.6443 z m -1636.996,3337.3599 -58.087,125.4149 c 21.123,-10.5612 43.565,-18.4823 66.008,-26.4031 -3.96,-33.004 -7.921,-66.0079 -7.921,-99.0118 z"
     id="path4499"
     inkscape:connector-curvature="0"
     style="fill:#ffffff;stroke-width:1.32015812" />
  <path
     d="m 10499.954,6809.9924 2014.563,-3824.4981 c 200.663,-359.0831 462.053,-1015.2017 710.244,-1279.2334 452.815,132.0159 4188.862,2184.8618 5006.04,2604.6721 209.906,108.253 514.862,262.7115 691.763,402.6484 -112.213,488.4584 -961.075,1689.8023 -957.115,2071.328 l 524.104,18.4823 c 315.516,-516.1819 749.848,-1332.0396 994.077,-1937.9923 147.858,-365.6838 114.855,-826.4189 -63.367,-1168.3399 -200.664,-382.8459 -414.53,-502.9802 -788.134,-718.1661 L 14778.587,948.49033 c -368.324,-174.2609 -668,-323.43881 -1137.976,-199.34391 -863.384,225.74701 -1024.442,868.66398 -1390.127,1530.06328 -179.541,323.4388 -344.561,638.9564 -522.783,982.1976 L 10205.56,6164.4351 c -307.5978,592.7511 -508.2608,654.7985 294.394,645.5573 z"
     id="path4501"
     inkscape:connector-curvature="0"
     style="stroke-width:1.32015812" />
  <path
     d="m 654.21543,9406.7436 c 546.54547,52.8062 7036.44297,95.0516 8096.53007,51.4862 240.2687,-9.2412 323.4386,-112.2136 488.4584,-250.83 436.9723,-364.3638 576.9093,154.4583 945.2321,225.7469 l 6441.053,42.2452 10355.321,-73.929 c -575.59,-142.577 -7015.321,-211.2253 -8276.072,-234.9882 l -2435.692,-23.7628 c -690.443,91.0909 -5770.411,139.9368 -6367.1238,-254.7905 -326.078,-216.5058 -446.2124,-258.751 -747.2085,-31.6838 -357.7628,270.6324 -238.9486,278.5534 -803.9763,294.3953 L 5033.18,9237.7633 c -637.6363,14.5218 -4087.20957,43.5652 -4378.96457,168.9803 z"
     id="path4503"
     inkscape:connector-curvature="0"
     style="fill:#ff6600;stroke-width:1.32015812" />
  <path
     d="m 16379.939,10688.616 -559.747,7.921 c -174.261,232.348 -1477.257,2800.056 -1751.85,3312.277 -100.332,186.142 -487.138,967.677 -621.795,1110.254 -469.977,-196.705 -1009.921,-491.1 -1449.532,-726.088 -592.752,-316.838 -4022.5226,-2072.648 -4265.4317,-2289.155 116.1739,-355.121 636.3162,-1124.774 648.1976,-1392.766 -600.6719,-161.058 -609.913,63.368 -805.2964,434.332 -120.1343,227.067 -355.1226,660.079 -403.9684,921.47 -159.7392,854.143 363.0435,1329.399 967.6759,1671.321 l 3439.012,1827.098 c 646.877,324.76 1159.098,666.681 1949.873,204.626 475.257,-277.234 818.498,-1081.21 1079.888,-1577.59 238.95,-454.134 1766.374,-3240.989 1772.974,-3503.7 z"
     id="path4505"
     inkscape:connector-curvature="0"
     style="stroke-width:1.32015812" />
  <path
     d="m 10929.006,14583.083 c 118.813,-344.561 -188.783,-406.61 -468.657,-555.787 -154.458,-83.169 -633.6748,-397.368 -784.1728,-246.87 -267.9921,266.672 1045.5648,848.862 1252.8298,802.657 z"
     id="path4507"
     inkscape:connector-curvature="0"
     style="fill:#ffffff;stroke-width:1.32015812" />
  <path
     d="m 13487.472,13670.854 c 25.084,-10.561 51.487,-17.163 79.209,-17.163 42.247,1.321 88.452,21.124 125.416,40.925 l 162.38,85.81 c 14.521,7.921 29.042,15.843 43.564,22.444 10.562,5.281 21.123,9.241 33.004,13.201 l 21.123,7.921 -135.977,254.789 -15.841,-6.6 c -19.802,-6.6 -39.604,-15.841 -58.087,-25.083 l -162.379,-87.13 c -14.521,-6.601 -33.004,-14.522 -48.846,-7.92 -18.482,7.92 -34.325,34.324 -43.566,51.485 l -191.422,360.403 287.794,153.14 -133.336,252.149 -778.894,-413.21 c -44.884,-23.762 -52.805,-63.367 -29.043,-106.933 l 304.957,-576.908 c 23.762,-43.566 54.126,-88.451 92.412,-120.135 31.683,-25.082 67.326,-44.886 106.931,-56.767 34.325,-9.241 69.969,-11.881 105.613,-9.241 35.645,3.96 71.289,14.522 102.973,31.684 34.324,17.162 64.688,40.926 89.77,69.968 21.123,25.084 34.325,52.807 42.245,83.171 z m 35.646,-480.538 c 1.319,1.32 2.639,1.32 3.959,2.64 l 75.248,39.605 335.32,-633.675 190.104,101.651 -335.32,632.357 80.529,43.564 c 1.32,0 3.961,1.32 5.281,2.641 0,-1.321 1.32,-1.321 1.32,-2.641 l 336.641,-633.675 241.589,128.054 -401.328,756.451 c -19.802,35.645 -46.206,68.649 -87.131,80.529 -38.285,11.882 -77.89,0 -112.213,-18.482 l -590.112,-312.877 c -33.002,-17.162 -62.047,-42.245 -75.247,-77.889 -13.203,-40.926 0,-84.49 18.481,-121.454 l 401.329,-755.13 249.51,132.015 -336.641,634.997 z m 900.346,-747.21 204.626,108.254 -134.657,252.15 -777.573,-413.21 c -44.886,-23.762 -54.126,-63.367 -30.364,-106.933 l 285.154,-537.305 c 26.404,-50.165 60.727,-101.651 105.613,-138.615 35.644,-30.365 76.57,-54.127 122.775,-68.649 46.205,-13.201 93.731,-18.483 141.257,-14.522 48.845,5.281 95.051,18.483 137.297,40.926 38.285,19.801 71.288,46.205 100.331,77.889 27.724,31.683 50.167,67.327 66.008,105.613 19.803,50.166 27.723,102.971 25.083,157.098 -3.961,63.367 -26.404,125.415 -56.766,180.862 z m 1036.324,-1603.991 c 7.921,0 15.843,0 23.764,1.32 7.921,1.32 15.841,2.64 22.442,5.281 l 25.084,5.279 -149.179,279.874 -14.522,-2.64 c -5.28,-1.321 -10.56,-2.64 -15.841,-2.64 -5.281,-1.321 -9.242,-1.321 -14.521,-2.64 l -108.254,-7.921 -242.909,458.094 66.008,83.17 11.881,11.881 9.242,9.241 13.2,9.242 -151.818,287.794 -18.481,-17.162 c -6.601,-3.96 -11.881,-10.56 -17.163,-15.842 -5.28,-5.279 -10.561,-11.881 -14.522,-18.482 l -489.778,-632.356 c -35.645,-47.525 -62.046,-101.653 -67.328,-161.058 -6.601,-60.728 11.882,-121.456 40.925,-174.263 27.724,-54.126 67.328,-101.65 120.134,-130.694 52.807,-29.044 112.213,-38.285 172.941,-34.324 z m 133.336,-1132.6955 c 23.764,-10.561 51.487,-17.162 79.211,-15.842 42.245,0 88.451,19.802 125.414,39.605 l 161.06,85.8104 c 14.521,7.922 29.043,15.842 43.566,22.443 10.56,5.281 22.441,10.561 33.003,14.521 l 21.123,7.921 -134.656,253.4701 -15.841,-5.282 c -19.804,-7.92 -39.606,-15.841 -58.088,-26.401 l -162.38,-85.8111 c -14.521,-7.921 -34.325,-14.522 -50.166,-7.921 -18.482,6.601 -34.325,33.0041 -43.566,50.1661 l -191.423,361.723 287.796,153.139 -133.337,250.829 -777.573,-413.21 c -44.885,-23.762 -54.127,-63.366 -30.365,-106.931 l 306.278,-576.9095 c 22.442,-43.565 52.807,-88.451 92.412,-118.814 31.683,-26.403 67.327,-46.205 105.612,-56.767 34.324,-10.561 69.968,-13.202 105.613,-10.561 36.964,3.96 71.288,14.522 102.971,31.684 34.325,18.482 64.69,40.925 89.771,69.968 21.124,25.083 35.645,52.806 43.565,83.17 z M 16595.125,8700.459 c 7.921,0 15.842,0 23.762,1.3201 7.921,1.3201 15.842,2.6403 23.763,5.2806 l 23.762,5.2807 -149.176,279.8736 -14.522,-2.6404 -15.842,-3.9605 c -5.28,0 -9.24,-1.3202 -13.202,-1.3202 l -109.573,-7.9209 -242.909,458.0949 66.007,83.1696 11.882,11.881 c 2.641,2.641 6.601,6.602 10.562,9.242 l 11.881,9.241 -151.818,287.7954 -18.482,-17.163 c -5.28,-5.28 -11.883,-10.561 -15.842,-15.842 -6.602,-5.28 -10.562,-11.881 -15.843,-18.481 l -488.457,-632.3568 c -36.965,-47.5257 -63.369,-101.6522 -68.648,-161.0594 -6.602,-60.7272 13.201,-121.4545 40.923,-175.581 29.045,-52.8062 67.33,-100.3319 120.136,-129.3754 52.806,-29.0436 113.532,-38.2846 172.94,-34.3242 z m 505.622,-806.6167 -234.989,442.2529 c -35.645,66.008 -80.53,129.3757 -141.258,176.9013 -52.805,40.9249 -110.893,71.2885 -175.581,88.4506 -56.766,14.5217 -114.853,18.4822 -171.621,11.8814 -60.727,-6.6008 -118.813,-25.083 -171.62,-54.1264 -60.727,-31.6839 -112.214,-73.9289 -154.458,-128.0555 -39.606,-51.4861 -68.649,-109.5731 -84.49,-174.2608 -15.842,-58.0869 -19.804,-117.4941 -11.881,-176.9012 7.921,-67.328 33.003,-133.3361 66.007,-194.0633 l 233.668,-442.253 249.509,133.336 -234.987,442.253 c -14.522,27.7234 -27.724,59.4072 -31.683,91.091 -2.642,26.4031 -1.321,51.4862 5.28,75.249 6.6,26.4032 18.482,50.166 35.643,71.2885 17.163,21.1225 36.965,38.2846 62.049,51.4861 21.122,11.8815 44.885,19.8024 69.967,22.4427 23.764,2.6404 47.526,0 71.29,-6.6007 26.402,-6.6007 51.486,-19.8024 72.607,-38.2846 27.725,-21.1225 47.526,-51.4862 64.688,-81.8499 l 233.668,-442.253 z m -99.014,248.1898 182.181,327.3992 -110.892,207.2648 -205.944,-279.8735 z m 348.523,-718.1661 c -35.645,67.3281 -81.85,130.6957 -141.258,176.9012 -52.806,42.2451 -112.213,72.6087 -176.901,89.7708 -55.446,14.5218 -113.533,18.4822 -171.621,11.8814 -60.727,-6.6008 -117.493,-26.4031 -171.619,-54.1265 -59.407,-33.0039 -112.215,-75.2491 -153.138,-128.0553 -39.606,-52.8064 -68.649,-110.8933 -85.812,-174.2609 -15.841,-58.087 -18.481,-117.4941 -10.561,-176.9011 7.922,-68.6483 33.003,-133.3361 64.687,-194.0634 l 91.092,-170.3003 c 31.683,-60.7273 72.609,-117.4941 124.096,-163.6997 44.884,-38.2847 96.371,-69.9684 153.137,-89.7707 60.727,-21.1226 125.414,-30.3636 191.423,-26.4032 67.328,5.2806 132.016,23.7628 191.423,55.4467 54.127,29.0434 101.652,66.0078 141.257,112.2134 38.285,44.8853 67.328,93.7313 87.13,149.1778 22.443,63.3676 29.044,129.3755 25.083,195.3835 -6.6,76.5691 -33.005,149.1778 -67.328,216.5059 z m -701.005,-900.3479 -347.201,652.1581 -183.503,-97.6916 345.881,-652.1582 z m 603.313,-356.4427 2.64,2.6404 75.249,39.6047 336.639,-632.3558 190.103,100.3321 -336.639,633.6759 81.849,43.5652 c 1.321,0 2.64,1.3202 5.282,1.3202 v -1.3202 l 336.639,-634.9961 242.91,129.3756 -402.648,756.4506 c -18.483,35.6442 -46.206,68.6481 -85.812,80.5296 -38.284,11.8813 -79.21,0 -113.532,-18.4822 l -590.111,-312.8775 c -31.683,-17.162 -62.048,-42.2451 -73.929,-79.2095 -13.202,-40.9249 -1.32,-83.1699 18.482,-120.1343 l 401.329,-756.4507 249.509,132.0158 -337.96,634.9961 z m 842.259,-1586.83 -318.156,600.6719 c -5.282,7.921 -10.562,18.4822 -10.562,27.7233 -1.321,5.2807 -1.321,10.5612 0,15.842 3.962,13.2015 11.882,22.4426 23.763,27.7232 13.201,6.6008 25.082,7.921 38.284,2.6404 3.961,-2.6404 7.921,-5.2806 11.882,-9.2412 5.28,-5.2805 10.561,-15.8419 14.521,-22.4427 l 190.103,-356.4426 c 21.123,-42.2451 48.847,-81.8499 85.81,-112.2135 30.364,-25.083 64.688,-43.5652 102.973,-54.1264 35.645,-10.5613 72.609,-14.5218 110.894,-11.8815 38.283,3.9605 73.927,14.5217 108.253,33.0039 31.682,15.842 59.406,38.2846 81.849,66.008 22.443,26.4031 40.925,55.4466 54.127,87.1304 14.521,39.6048 19.802,81.8498 18.482,124.0948 -3.961,50.1661 -21.122,99.012 -44.886,142.5772 l -343.24,646.8774 -241.589,-129.3754 322.119,-607.2728 c 5.279,-10.5613 11.881,-23.7629 13.2,-35.6443 1.32,-6.6009 1.32,-14.5217 -1.319,-21.1225 -3.961,-10.5613 -11.881,-17.1621 -21.124,-22.4427 -11.881,-6.6009 -25.082,-9.2411 -38.283,-5.2805 v 1.32 h -1.321 c -5.281,1.3201 -10.562,3.9605 -15.843,7.9209 -7.92,7.921 -14.52,21.1226 -19.8,30.3637 l -175.582,330.0396 c -23.763,44.8853 -54.126,93.7311 -93.731,126.7352 -30.363,26.4031 -66.008,46.2054 -104.292,58.0869 -35.645,9.2411 -72.609,13.2016 -109.574,10.5613 -39.605,-3.9605 -76.57,-15.842 -110.894,-34.3242 -34.323,-18.4821 -63.367,-42.245 -88.449,-72.6087 -23.764,-29.0434 -40.926,-62.0475 -52.808,-97.6917 -11.881,-38.2846 -14.522,-77.8892 -10.561,-118.8142 5.281,-50.166 27.724,-102.9722 51.487,-147.8578 l 324.758,-612.5534 z m -5119.572,9613.3906 v 1.32 l 101.651,52.807 194.065,-367.005 c 5.28,-9.241 10.562,-21.122 10.562,-33.002 0,-7.922 -1.321,-17.164 -5.282,-25.085 -5.28,-13.201 -13.202,-22.441 -25.083,-29.044 -11.881,-6.6 -25.082,-9.24 -39.605,-5.28 l -1.32,1.32 c -18.481,3.96 -31.684,21.124 -40.924,36.965 z m 1054.806,-1959.114 159.739,84.489 191.423,-360.403 c 9.242,-17.162 18.483,-36.964 18.483,-56.767 1.32,-13.2 -1.321,-27.723 -6.601,-40.925 -9.241,-18.48 -22.442,-31.684 -39.605,-40.925 -18.482,-9.241 -38.285,-13.2 -59.407,-9.241 -13.201,1.32 -26.403,7.921 -36.964,17.162 -14.521,11.882 -26.403,29.045 -34.325,46.206 z m 935.993,-1137.977 -327.399,-27.723 c -5.281,0 -11.882,0 -17.162,2.641 -3.961,2.64 -7.92,6.6 -9.241,10.561 -2.64,5.28 -3.962,9.241 -3.962,14.521 0,3.96 3.962,10.561 7.922,14.521 l 205.945,254.792 z m 113.533,-866.023 h 1.321 l 100.331,52.806 195.385,-367.0031 c 5.279,-9.241 9.24,-21.122 10.561,-31.683 0,-9.241 -2.641,-18.483 -5.282,-26.404 -5.279,-11.881 -13.201,-22.442 -25.082,-29.043 -13.202,-6.601 -26.404,-9.242 -40.926,-3.96 h -1.319 c -18.483,3.96 -31.683,21.122 -39.605,36.963 l -195.384,367.0031 z m 1021.802,-1273.9525 -327.398,-26.403 c -5.28,0 -11.882,0 -17.163,2.6403 -3.96,2.6403 -6.6,6.6008 -9.242,10.5612 -2.639,5.2806 -3.959,9.2411 -3.959,14.5218 0,3.9605 5.28,10.5614 7.92,14.5217 l 205.945,254.7906 z m 652.159,-1849.5414 c -14.522,27.7232 -29.044,60.7271 -31.684,92.411 -2.639,25.083 -2.639,50.166 3.961,75.249 7.921,25.0831 19.802,48.8459 35.644,69.9684 17.161,22.4427 38.284,39.6048 62.048,52.8063 22.441,10.5614 46.205,18.4823 71.288,21.1227 23.763,2.6401 47.525,1.32 69.968,-5.2808 27.724,-7.9209 51.486,-21.1225 73.929,-38.2844 26.403,-22.4429 47.525,-52.8065 63.367,-83.1701 l 91.091,-170.3003 c 15.842,-30.3638 29.045,-64.6878 31.684,-99.012 2.64,-27.7233 0,-55.4466 -9.241,-81.8498 -7.921,-22.4427 -19.802,-43.5652 -34.324,-62.0474 -15.841,-18.4823 -35.645,-34.3241 -58.087,-46.2056 -23.762,-11.8814 -50.166,-19.8024 -77.89,-22.4427 -26.402,-1.3202 -52.805,1.3203 -77.888,10.5613 -23.764,7.921 -46.206,21.1225 -64.688,38.2847 -25.083,21.1224 -43.565,50.1659 -59.408,77.8892 z"
     id="path4509"
     inkscape:connector-curvature="0"
     style="fill:#fefefe;stroke-width:1.32015812" />
  <path
     d="m 13557.442,14524.996 -114.855,217.826 -761.731,-403.969 c -33.004,-18.482 -40.925,-44.884 -22.442,-80.53 l 306.276,-576.908 c 27.723,-50.166 56.767,-88.451 87.13,-113.534 31.685,-25.083 66.008,-43.565 100.333,-54.127 31.684,-7.922 64.687,-11.881 97.691,-7.922 34.324,2.643 66.007,11.883 96.372,29.045 33.005,17.162 60.727,38.285 84.489,66.008 23.763,26.403 36.966,59.408 43.566,99.012 30.363,-18.482 60.727,-27.723 92.41,-26.403 31.684,1.321 69.97,13.201 116.175,38.284 l 162.38,85.81 c 18.482,9.242 33.003,17.163 43.564,22.444 11.883,5.28 23.764,10.56 35.645,14.521 l -117.493,220.466 c -18.483,-7.921 -36.966,-15.842 -55.448,-25.082 l -162.379,-85.81 c -25.083,-14.523 -47.527,-17.164 -66.007,-9.243 -18.484,7.922 -35.646,27.725 -52.808,59.409 l -200.663,377.565 z M 13288.129,13890 c 7.921,-15.842 13.201,-29.044 13.201,-40.925 0,-11.883 -2.64,-23.763 -6.601,-34.324 -7.921,-17.163 -18.482,-30.364 -34.325,-38.285 -18.48,-9.241 -36.962,-11.881 -54.125,-6.6 -22.442,5.28 -39.605,21.121 -54.126,47.525 l -194.063,367.004 c -6.601,11.882 -3.961,21.123 9.24,27.723 l 117.494,62.048 z m 331.36,-1441.614 215.185,113.535 -327.399,617.834 c -6.601,11.881 -3.961,22.442 10.561,29.043 l 92.411,50.166 335.32,-633.675 157.1,83.169 -336.641,632.356 99.012,52.806 c 13.201,7.92 25.082,5.281 31.684,-7.921 l 327.399,-616.513 207.264,109.572 -392.086,740.609 c -40.924,75.249 -99.011,93.732 -174.261,54.127 l -588.791,-314.198 c -72.609,-38.284 -89.771,-96.371 -48.845,-172.941 z m 368.323,-693.082 c 30.364,-58.086 64.688,-101.652 100.334,-132.015 35.642,-31.685 75.247,-52.808 117.492,-66.008 42.246,-13.204 87.131,-17.163 133.337,-13.204 46.205,3.962 89.771,17.164 129.376,38.286 36.963,19.802 68.647,43.565 95.051,73.929 26.403,30.364 47.525,63.368 62.047,100.332 19.802,46.206 27.723,95.051 23.762,147.858 -2.64,52.806 -21.121,110.893 -54.126,172.94 l -198.024,373.605 204.625,108.253 -116.174,217.827 -760.411,-403.969 c -34.324,-18.483 -40.925,-44.885 -22.441,-80.529 z m 410.569,211.225 c 13.202,-23.762 19.804,-44.885 21.124,-63.367 1.32,-18.482 -2.642,-35.645 -9.242,-50.166 -10.561,-21.123 -26.403,-38.285 -47.526,-50.166 -23.762,-11.881 -47.526,-15.842 -72.608,-11.881 -15.842,2.64 -30.365,10.561 -44.886,21.121 -14.521,11.882 -27.723,29.045 -39.605,52.807 l -192.743,361.724 c -5.28,10.561 -2.64,18.482 7.921,25.082 l 176.901,93.731 z m 1060.088,-1108.932 c 7.921,0 15.842,1.319 22.443,2.64 6.6,0 13.201,1.32 21.122,3.961 l -130.696,244.228 c -6.6,-1.32 -11.882,-1.32 -17.162,-2.64 -5.28,-1.32 -10.561,-1.32 -15.842,-1.32 l -121.454,-9.241 -254.791,480.538 75.249,93.731 11.883,11.88 c 3.959,3.961 7.92,7.922 13.2,10.562 l -133.335,252.15 c -6.602,-5.279 -10.562,-10.561 -15.842,-15.84 -3.961,-5.282 -9.241,-10.563 -13.202,-17.163 l -489.779,-632.357 c -38.283,-50.165 -59.407,-100.331 -64.688,-150.497 -5.28,-51.487 7.921,-105.613 39.605,-165.021 30.363,-56.766 67.328,-97.69 112.213,-121.453 44.886,-25.083 99.012,-35.644 162.381,-33.004 z m -462.056,221.787 -356.443,-30.365 c -11.88,0 -21.122,1.321 -27.722,6.601 -7.922,3.961 -13.203,9.241 -17.163,18.483 -3.961,6.6 -6.6,14.521 -5.28,22.442 0,7.921 3.96,17.162 10.56,26.404 l 225.748,278.552 z m 666.681,-517.502 -116.175,216.504 -761.731,-403.967 c -33.005,-18.482 -40.926,-44.886 -21.122,-80.531 l 306.276,-576.9075 c 26.403,-50.166 55.446,-88.451 87.13,-113.533 31.685,-25.084 64.687,-43.566 100.333,-52.807 30.363,-9.24 63.367,-11.881 97.691,-9.24 33.005,2.64 66.008,13.201 96.372,29.043 31.684,17.162 60.727,39.604 83.171,66.008 23.762,26.403 38.284,59.407 43.564,100.332 30.363,-19.803 62.047,-27.724 92.412,-27.724 31.683,1.32 71.288,13.202 117.493,38.285 l 162.38,85.8104 c 17.162,9.241 31.683,17.162 43.565,22.443 10.561,5.28 22.443,10.561 34.323,15.842 l -116.172,219.1461 c -18.483,-6.602 -38.286,-15.842 -56.767,-25.083 l -161.06,-85.8111 c -26.402,-14.521 -47.526,-17.162 -66.007,-9.24 -18.483,7.92 -36.966,27.722 -54.126,59.4051 l -200.667,378.886 z m -269.313,-636.3151 c 7.921,-14.523 11.881,-29.044 11.881,-40.925 0,-11.882 -1.32,-23.764 -6.601,-34.325 -6.6,-17.162 -18.481,-29.044 -33.005,-38.285 -18.48,-9.241 -36.962,-11.881 -55.445,-5.28 -21.122,5.28 -39.605,21.123 -52.806,47.526 l -194.064,365.6831 c -6.6,11.88 -3.96,21.122 7.921,27.722 l 117.495,62.048 z m 1200.023,-1206.6257 c 9.242,0 15.842,1.3201 22.443,2.6402 6.601,0 14.522,1.3203 21.123,3.9605 l -130.696,244.2293 c -5.28,-1.32 -11.881,-2.6404 -17.162,-2.6404 -5.28,-1.32 -10.561,-1.32 -14.523,-2.6402 l -121.453,-7.9211 -254.79,479.2176 73.928,93.7304 c 3.96,5.281 7.921,9.242 11.881,13.203 3.961,3.96 7.922,7.92 13.202,10.561 l -133.336,252.1504 -15.841,-15.842 c -3.962,-5.28 -9.243,-10.561 -13.202,-17.163 l -489.779,-632.3553 c -38.285,-50.166 -59.407,-100.3321 -64.687,-151.8182 -3.96,-50.166 9.24,-104.2925 39.605,-163.6996 30.363,-56.7668 67.327,-97.6917 113.532,-122.7747 44.887,-23.7629 97.692,-34.3241 161.059,-31.6839 z m -462.054,221.7866 -356.443,-30.3637 c -10.561,0 -19.804,1.3202 -27.725,6.6008 -7.92,3.9605 -13.2,9.2411 -17.161,17.162 -3.96,7.921 -5.28,15.8419 -5.28,23.7629 0,7.921 3.96,17.162 10.561,26.4031 l 225.747,277.2333 z m 942.593,-1038.9645 -225.747,425.0909 c -38.286,72.6086 -83.17,129.3756 -135.978,170.3003 -51.485,40.925 -108.253,69.9686 -168.979,85.8104 -54.127,13.2016 -108.253,17.1621 -165.021,11.8815 -55.446,-6.6009 -110.892,-23.7628 -163.699,-52.8065 -59.406,-31.6837 -109.573,-72.6086 -147.857,-122.7746 -38.286,-50.1661 -66.008,-105.6126 -81.851,-166.34 -14.52,-54.1264 -18.481,-110.8932 -10.561,-170.3003 6.601,-59.4071 27.725,-121.4547 62.047,-187.4626 l 225.747,-425.0907 215.188,114.8536 -225.748,425.0909 c -19.803,36.9645 -30.364,69.9684 -34.324,99.0118 -2.641,29.0436 -1.321,56.767 5.279,81.8499 7.921,27.7233 21.125,54.1264 39.605,77.8892 18.482,23.7629 40.926,42.2452 68.648,56.7669 25.084,13.2016 50.168,21.1226 76.57,23.7629 27.724,2.6402 52.806,1.3202 77.89,-6.6008 29.042,-6.6009 55.447,-21.1226 81.85,-40.925 25.083,-21.1224 47.525,-50.1659 67.327,-88.4505 l 225.747,-425.0909 z m -72.61,281.1936 159.74,286.4744 -91.091,171.6205 -180.862,-245.5494 z m 331.36,-768.332 c -38.283,73.9288 -84.49,130.6956 -135.975,171.6206 -52.808,40.9248 -108.254,69.9682 -168.981,85.8103 -54.127,13.2015 -108.253,17.162 -165.019,10.5612 -56.769,-6.6007 -110.895,-23.7628 -165.022,-51.4862 -59.406,-31.6837 -108.252,-72.6087 -146.536,-122.7747 -39.606,-51.4862 -67.328,-106.9328 -83.171,-167.6601 -14.521,-54.1265 -17.161,-109.5731 -10.561,-168.9803 7.921,-59.4069 29.044,-121.4544 63.368,-187.4624 l 91.09,-170.3004 c 34.325,-66.0079 73.93,-118.8141 118.815,-158.4189 44.886,-38.2847 93.732,-67.3281 146.538,-85.8104 59.407,-21.1225 121.454,-29.0434 184.822,-25.0829 63.367,3.9604 125.414,22.4426 184.822,52.8063 52.807,29.0434 97.692,64.6878 134.656,108.253 36.964,42.245 64.688,89.7707 83.169,142.5771 21.124,59.407 29.045,121.4546 23.764,187.4624 -5.281,66.008 -26.403,135.9762 -64.688,208.5849 z m -596.711,-316.8379 c -19.803,36.9643 -31.684,69.9682 -34.325,99.0117 -2.64,29.0435 -1.32,56.7669 5.281,83.1701 7.921,27.7234 21.123,52.8063 39.605,76.5691 18.483,23.7629 40.924,43.5652 67.328,56.7668 25.083,13.2016 51.487,22.4427 77.888,25.0831 26.405,2.6402 52.808,0 77.891,-6.6008 29.043,-7.921 55.446,-21.1226 80.531,-42.2451 25.082,-19.8024 48.845,-50.166 68.646,-88.4506 l 91.092,-170.3004 c 19.803,-38.2845 31.683,-73.9288 34.325,-105.6126 2.639,-33.004 0,-63.3677 -10.563,-91.0909 -7.92,-25.0831 -21.122,-47.5257 -38.284,-67.3282 -17.162,-21.1226 -38.284,-38.2845 -63.367,-51.4861 -27.724,-13.2017 -55.447,-22.4427 -85.811,-23.7628 -29.043,-2.6404 -58.087,1.3201 -85.81,10.5611 -25.084,9.2413 -48.846,22.4428 -71.289,42.2452 -22.442,18.4822 -43.566,46.2055 -63.367,83.1699 z m -113.534,-566.3479 -328.719,619.1542 -149.178,-80.5297 327.398,-617.834 z m 726.088,-1106.2926 215.185,114.8538 -327.399,616.5139 c -7.921,13.2016 -3.961,22.4427 9.241,30.3636 l 92.412,48.8459 336.639,-632.3559 155.779,81.85 -335.32,633.6758 97.692,51.4862 c 14.522,7.9209 25.082,5.2807 31.684,-6.6009 l 328.719,-617.8339 207.264,110.8932 -393.407,739.2886 c -39.604,76.5693 -97.692,93.7313 -172.941,54.1264 l -590.111,-312.8773 c -72.609,-39.6047 -88.45,-96.3716 -47.524,-172.9408 z m 719.486,-836.9803 -308.918,583.5099 c -7.92,14.5218 -11.881,25.0832 -13.201,34.3242 -1.32,9.241 -1.32,17.162 1.32,25.083 5.28,17.162 15.841,30.3637 33.004,38.2846 18.481,9.2411 35.645,10.5613 54.127,2.6403 6.601,-2.6403 13.201,-6.6008 18.48,-11.8814 5.282,-6.6008 11.883,-15.8419 18.484,-27.7233 l 190.103,-357.7629 c 23.763,-44.8854 50.166,-80.5297 80.529,-104.2926 30.364,-25.083 62.048,-42.2449 96.371,-51.4861 33.004,-10.5613 68.649,-13.2016 104.294,-10.5613 34.323,2.6404 68.647,13.2016 100.332,29.0436 30.362,15.8418 55.446,36.9643 76.568,62.0474 22.443,25.083 38.285,52.8064 50.166,83.17 13.203,35.6441 19.803,73.9288 17.163,116.1738 -2.64,40.925 -17.163,85.8103 -42.245,133.336 l -334,629.7155 -207.265,-110.8934 312.877,-590.1107 c 9.241,-17.1619 14.522,-31.6837 15.841,-42.245 1.321,-11.8814 0,-21.1225 -2.64,-30.3637 -6.6,-14.5217 -15.842,-25.0829 -30.362,-33.0039 -18.483,-9.2411 -35.646,-11.8813 -52.808,-6.6008 -9.24,2.6403 -17.161,7.921 -25.082,14.5218 -6.6,6.6007 -14.521,18.4823 -23.763,34.3241 l -175.581,330.0395 c -27.724,54.1265 -58.086,95.0514 -88.451,121.4546 -31.684,25.083 -63.367,43.5652 -97.692,52.8062 -34.323,10.5613 -68.648,13.2018 -102.972,10.5613 -34.325,-2.6403 -68.648,-13.2015 -102.972,-31.6837 -33.004,-17.162 -60.728,-39.6048 -81.85,-67.328 -22.443,-27.7234 -39.605,-58.087 -50.166,-92.4112 -10.561,-33.0038 -14.522,-69.9683 -10.561,-109.5731 5.281,-39.6048 21.122,-87.1305 50.166,-141.2569 l 316.837,-595.3912 z"
     id="path4511"
     inkscape:connector-curvature="0"
     style="fill-rule:nonzero;stroke-width:1.32015812" />
  <path
     d="m 13680.215,9579.6835 1531.384,-3291.1536 603.313,281.1937 -2068.69,4444.9714 -616.512,-287.794 -485.818,-4228.4659 -1531.385,3291.1548 -603.311,-281.1944 2068.687,-4444.9723 616.514,287.7945 z"
     id="path4513"
     inkscape:connector-curvature="0"
     style="fill:#fefefe;stroke-width:1.32015812" />
  <text
     x="13709.666"
     y="3959.314"
     font-size="5073.8"
     transform="matrix(0.86817783,0.40385464,-0.44051174,0.9469227,0,0)"
     id="text4515"
     style="font-size:6413.69677734px;font-family:Arial;fill:#ff6600;stroke-width:1.26408148">N</text>
  <path
     d="m 22834.192,9443.708 h 747.21 c 85.81,282.5135 397.368,217.8265 609.913,223.1065 186.143,295.7154 344.561,439.6115 749.849,447.5335 196.703,3.96 397.369,0 594.072,1.32 450.174,0 286.475,-171.6201 380.207,-224.4261 h 770.971 c 43.565,0 133.336,6.601 168.979,-21.123 43.566,-31.683 22.443,-19.802 26.404,-47.525 14.522,-87.1304 25.083,43.565 25.083,-223.1074 l -15.842,-723.4466 c -1.32,-3.9605 -2.64,-7.9208 -3.96,-10.5612 -1.321,-1.3201 -2.64,-5.2806 -3.96,-9.2411 -18.482,-87.1304 -100.332,-69.9683 -196.704,-69.9683 h -265.352 c -155.779,-1.3203 -377.565,13.2015 -524.103,-2.6403 -43.565,-217.8263 -137.296,-220.4664 -361.723,-220.4664 -198.024,0 -396.047,-1.3203 -594.072,-1.3203 -299.676,0 -636.316,149.1779 -744.568,446.2135 -209.906,5.2807 -535.984,-55.4467 -616.515,225.747 l -745.889,1.3202 z"
     id="path4517"
     inkscape:connector-curvature="0"
     style="fill:#ff6600;stroke-width:1.32015812" />
  <path
     d="m 25683.093,9899.1629 1.321,-1124.7751 c -130.696,-15.8418 -829.059,-9.2412 -932.032,18.4822 -555.786,153.1384 -565.027,928.0705 -5.281,1089.1309 100.332,29.043 817.178,34.324 935.992,17.162 z m 1007.282,-897.7079 -794.736,-5.2807 -1.321,682.5212 c 211.227,14.523 532.024,10.562 743.25,3.962 87.131,-2.641 52.807,-80.53 54.126,-310.2381 z"
     id="path4519"
     inkscape:connector-curvature="0"
     style="fill:#fafafa;stroke-width:1.32015812" />
  <path
     d="m 26167.591,9443.708 190.104,-1.3201 c 93.731,0 196.703,11.8814 204.623,-96.3717 9.241,-130.6955 -142.577,-113.5335 -256.11,-113.5335 -89.771,0 -229.707,-18.4823 -267.993,48.8458 -62.046,105.6127 34.325,162.3795 129.376,162.3795 z M 518.23918,9949.3289 c 9.2411,60.7261 50.16605,67.3281 133.33595,69.9671 l 823.77857,-2.639 c 101.6522,2.639 64.6878,34.323 132.0159,79.208 83.1701,52.806 273.2726,34.325 384.166,33.005 241.589,-1.321 562.3874,27.722 776.2531,-46.205 192.743,-67.329 373.6047,-227.0671 436.9722,-398.6875 290.4349,-6.602 534.6642,31.683 617.8341,-224.4277 l 679.8814,1.3202 v -212.5454 h -682.5217 c -27.7234,-95.0514 -109.5731,-176.9013 -208.585,-207.2648 -91.0909,-29.0435 -293.0751,-13.2017 -401.3281,-15.842 -92.411,-146.5375 -126.7352,-209.9051 -254.7905,-302.3161 -275.9131,-199.3438 -604.6324,-142.5772 -963.7155,-145.2174 -191.4229,-1.3202 -385.4862,-33.004 -451.4941,110.8932 l -811.89717,1.3201 c -99.0119,-1.3201 -195.38342,-15.8419 -207.26483,68.6484 -6.60081,54.1264 -25.08301,31.6837 -23.76285,130.6956 l 1.32015,986.1593 c 7.92095,69.968 7.92095,14.521 19.80238,73.928 z"
     id="path4521"
     inkscape:connector-curvature="0"
     style="fill:#ff6600;stroke-width:1.32015812" />
  <path
     d="m 1718.2629,8791.5499 -1.3202,1126.095 c 130.6957,15.842 830.3795,9.242 932.0317,-18.482 553.1463,-150.4984 567.668,-929.3917 5.2806,-1089.1308 -102.9723,-29.0436 -818.498,-35.6443 -935.9921,-18.4822 z m -213.8656,1016.522 2.6402,-902.9884 c -71.2886,-14.5218 -745.88927,-14.5218 -797.37537,3.9604 v 893.747 z"
     id="path4523"
     inkscape:connector-curvature="0"
     style="fill:#fafafa;stroke-width:1.32015812" />
  <path
     d="m 1068.7451,9682.6575 c 106.9328,0 261.3912,23.762 298.3556,-54.128 93.7314,-190.1021 -246.8695,-157.0982 -386.80617,-157.0982 -88.4506,1.3202 -171.6206,44.8852 -134.6561,146.5372 29.0434,80.53 138.6166,64.689 223.10667,64.689 z M 980.29453,9235.123 h 253.47037 c 200.6639,0 200.6639,-209.9052 0,-209.9052 H 980.29453 c -196.7036,0 -195.3834,211.2255 0,209.9052 z"
     id="path4525"
     inkscape:connector-curvature="0"
     style="fill:#ff6600;stroke-width:1.32015812" />
  <path
     d="m 3277.3697,9471.4313 c 126.7352,0 363.0434,42.2452 351.1621,-125.4151 -9.2412,-142.577 -219.1463,-121.4545 -352.4823,-108.2529 z m 20652.5543,-14.5218 h 190.102 l 5.28,-237.6283 c -101.651,0 -273.271,-25.0831 -328.719,44.8852 -81.849,104.2925 14.522,192.7431 133.337,192.7431 z"
     id="path4527"
     inkscape:connector-curvature="0"
     style="fill:#fafafa;stroke-width:1.32015812" />
</svg>
